<svg xmlns="http://www.w3.org/2000/svg" xmlns:oryx="http://oryx-editor.org" id="_E687A6ED-1234-43E9-95E9-78BDEF450D14" width="553" height="265" xmlns:xlink="http://www.w3.org/1999/xlink" xmlns:svg="http://www.w3.org/2000/svg"><defs><marker id="_80398AC4-CB1E-4598-86BF-2423D9B12A4Bstart" refX="1" refY="5" markerUnits="userSpaceOnUse" markerWidth="17" markerHeight="11" orient="auto" fill="#000000" stroke="#000000"> 	  		<path id="_80398AC4-CB1E-4598-86BF-2423D9B12A4Bconditional" d="M 0 5 L 8 0 L 16 5 L 8 10 L 0 5" fill="white" stroke="#000000" stroke-width="1" display="none"/> 			<path id="_80398AC4-CB1E-4598-86BF-2423D9B12A4Bdefault" d="M 5 0 L 11 10" fill="white" stroke="#000000" stroke-width="1" display="none"/> 	  	</marker><marker id="_80398AC4-CB1E-4598-86BF-2423D9B12A4Bend" refX="15" refY="6" markerUnits="userSpaceOnUse" markerWidth="15" markerHeight="12" orient="auto" fill="#000000" stroke="#000000"> 	  		<path id="_80398AC4-CB1E-4598-86BF-2423D9B12A4Bframe2" d="M 0 1 L 15 6 L 0 11z" fill="#000000" stroke="#000000" stroke-linejoin="round" stroke-width="2"/> 	  	</marker><marker id="_C9BD219C-D517-4BF0-AE5B-091608240196start" refX="1" refY="5" markerUnits="userSpaceOnUse" markerWidth="17" markerHeight="11" orient="auto" fill="#000000" stroke="#000000"> 	  		<path id="_C9BD219C-D517-4BF0-AE5B-091608240196conditional" d="M 0 5 L 8 0 L 16 5 L 8 10 L 0 5" fill="white" stroke="#000000" stroke-width="1" display="none"/> 			<path id="_C9BD219C-D517-4BF0-AE5B-091608240196default" d="M 5 0 L 11 10" fill="white" stroke="#000000" stroke-width="1" display="none"/> 	  	</marker><marker id="_C9BD219C-D517-4BF0-AE5B-091608240196end" refX="15" refY="6" markerUnits="userSpaceOnUse" markerWidth="15" markerHeight="12" orient="auto" fill="#000000" stroke="#000000"> 	  		<path id="_C9BD219C-D517-4BF0-AE5B-091608240196frame2" d="M 0 1 L 15 6 L 0 11z" fill="#000000" stroke="#000000" stroke-linejoin="round" stroke-width="2"/> 	  	</marker><marker id="_9B8C11BA-44F0-4001-B8B0-1CDDF9ECE854start" refX="1" refY="5" markerUnits="userSpaceOnUse" markerWidth="17" markerHeight="11" orient="auto" fill="#000000" stroke="#000000"> 	  		<path id="_9B8C11BA-44F0-4001-B8B0-1CDDF9ECE854conditional" d="M 0 5 L 8 0 L 16 5 L 8 10 L 0 5" fill="white" stroke="#000000" stroke-width="1" display="none"/> 			<path id="_9B8C11BA-44F0-4001-B8B0-1CDDF9ECE854default" d="M 5 0 L 11 10" fill="white" stroke="#000000" stroke-width="1" display="none"/> 	  	</marker><marker id="_9B8C11BA-44F0-4001-B8B0-1CDDF9ECE854end" refX="15" refY="6" markerUnits="userSpaceOnUse" markerWidth="15" markerHeight="12" orient="auto" fill="#000000" stroke="#000000"> 	  		<path id="_9B8C11BA-44F0-4001-B8B0-1CDDF9ECE854frame2" d="M 0 1 L 15 6 L 0 11z" fill="#000000" stroke="#000000" stroke-linejoin="round" stroke-width="2"/> 	  	</marker></defs><g stroke="none" font-family="Verdana, sans-serif" font-size-adjust="none" font-style="normal" font-variant="normal" font-weight="normal" line-heigth="normal" font-size="12"><g class="stencils" transform="translate(15, 16)"><g class="me"/><g class="children"><g id="_806585DD-AF97-4FC4-9C43-FF9324C7E8E5" bpmn2nodeid="processStartEvent"><g class="stencils" transform="translate(120, 165)"><g class="me"><g pointer-events="fill" id="_806585DD-AF97-4FC4-9C43-FF9324C7E8E5">        <defs id="_806585DD-AF97-4FC4-9C43-FF9324C7E8E5__806585DD-AF97-4FC4-9C43-FF9324C7E8E5_5"> 		<radialGradient id="_806585DD-AF97-4FC4-9C43-FF9324C7E8E5background" cx="10%" cy="10%" r="100%" fx="10%" fy="10%"> 			<stop offset="0%" stop-color="#ffffff" stop-opacity="1" id="_806585DD-AF97-4FC4-9C43-FF9324C7E8E5__806585DD-AF97-4FC4-9C43-FF9324C7E8E5_6"/> 			<stop id="_806585DD-AF97-4FC4-9C43-FF9324C7E8E5fill_el" offset="100%" stop-color="#9acd32" stop-opacity="1"/> 		</radialGradient> 	</defs> 	     <circle id="_806585DD-AF97-4FC4-9C43-FF9324C7E8E5bg_frame" cx="15" cy="15" r="15" stroke="#000000" fill="url(#_806585DD-AF97-4FC4-9C43-FF9324C7E8E5background) white" stroke-width="1" style="stroke-dasharray: 5.5, 3"/>      <circle id="_806585DD-AF97-4FC4-9C43-FF9324C7E8E5frame" cx="15" cy="15" r="15" stroke="#000000" fill="none" stroke-width="1" display="inherit"/>  	<text font-size="11" id="_806585DD-AF97-4FC4-9C43-FF9324C7E8E5text_name" x="15" y="32" oryx:align="top center" stroke="black" stroke-width="0pt" letter-spacing="-0.01px" fill="#000000" text-anchor="middle" transform="rotate(0 15 32)" visibility="inherit" oryx:fontSize="11"/>   </g></g><g class="children" style="overflow:hidden"/><g class="edge"/></g><g class="controls"><g class="dockers"/><g class="magnets" transform="translate(120, 165)"><g pointer-events="all" display="none" transform="translate(7, 7)"><circle cx="8" cy="8" r="4" stroke="none" fill="red" fill-opacity="0.3"/></g></g></g></g><g id="_184305B4-BABF-4C33-B94E-D601FE020C58" bpmn2nodeid="_BF74D56F-14AC-4A6E-A928-9890DD16C093"><g class="stencils" transform="translate(195, 140)"><g class="me"><g pointer-events="fill" oryx:minimumSize="50 40" id="_184305B4-BABF-4C33-B94E-D601FE020C58">   	<defs id="_184305B4-BABF-4C33-B94E-D601FE020C58__184305B4-BABF-4C33-B94E-D601FE020C58_17"> 		<radialGradient id="_184305B4-BABF-4C33-B94E-D601FE020C58background" cx="10%" cy="10%" r="100%" fx="10%" fy="10%"> 			<stop offset="0%" stop-color="#ffffff" stop-opacity="1" id="_184305B4-BABF-4C33-B94E-D601FE020C58__184305B4-BABF-4C33-B94E-D601FE020C58_18"/> 			<stop id="_184305B4-BABF-4C33-B94E-D601FE020C58fill_el" offset="100%" stop-color="#fafad2" stop-opacity="1"/> 		</radialGradient> 		<radialGradient id="_184305B4-BABF-4C33-B94E-D601FE020C58borderbackground" cx="10%" cy="10%" r="100%" fx="10%" fy="10%"> 			<stop offset="0%" stop-color="#ffffff" stop-opacity="1" id="_184305B4-BABF-4C33-B94E-D601FE020C58__184305B4-BABF-4C33-B94E-D601FE020C58_19"/> 			<stop id="_184305B4-BABF-4C33-B94E-D601FE020C58fill_border" offset="100%" stop-color="#000000" stop-opacity="1" stroke="#000000"/> 		</radialGradient> 	</defs> 	 	<rect id="_184305B4-BABF-4C33-B94E-D601FE020C58text_frame" oryx:anchors="bottom top right left" x="1" y="1" width="94" height="79" rx="10" ry="10" stroke="none" stroke-width="0" fill="none"/> 	<rect id="_184305B4-BABF-4C33-B94E-D601FE020C58bg_frame" oryx:resize="vertical horizontal" x="0" y="0" width="100" height="80" rx="10" ry="10" stroke="#000000" stroke-width="1" fill="url(#_184305B4-BABF-4C33-B94E-D601FE020C58background) #ffffcc"/> 		<text font-size="12" id="_184305B4-BABF-4C33-B94E-D601FE020C58text_name" x="50" y="40" oryx:align="middle center" oryx:fittoelem="text_frame" stroke="black" text-anchor="middle" stroke-width="0pt" letter-spacing="-0.01px" fill="#000000" transform="rotate(0 50 40)" visibility="inherit" oryx:fontSize="12"><tspan x="50" y="40" dy="5" id="ext-gen607">task 1</tspan></text>     <g id="_184305B4-BABF-4C33-B94E-D601FE020C58manualTask" transform="scale(0.7,0.7) translate(8,8)" display="none">     	<path oryx:anchors="top left" id="_184305B4-BABF-4C33-B94E-D601FE020C58frame" style="opacity:1;fill:none;fill-opacity:1;stroke-width:1" d="M0.5,3.751l4.083-3.25c0,0,11.166,0.083,12.083,0.083s-2.417,2.917-1.5,2.917     s11.667,0,12.584,0c1.166,1.708-0.168,3.167-0.834,3.667s0.875,1.917-1,4.417c-0.75,0.25,0.75,1.875-1.333,3.333     c-1.167,0.583,0.583,1.542-1.25,2.833c-1.167,0-20.833,0.083-20.833,0.083l-2-1.333V3.751z" stroke="#000000"/> 		<path id="_184305B4-BABF-4C33-B94E-D601FE020C58frame2" oryx:anchors="top left" style="opacity:1;fill:none;stroke-width:2" d="M 13.5 7 L 27 7" stroke="#000000"/> 		<path id="_184305B4-BABF-4C33-B94E-D601FE020C58frame3" oryx:anchors="top left" style="opacity:1;fill:none;stroke-width:2" d="M 13.5 11 L 26 11" stroke="#000000"/> 		<path id="_184305B4-BABF-4C33-B94E-D601FE020C58frame4" oryx:anchors="top left" style="opacity:1;fill:none;stroke-width:1.5" d="M 14 14.5 L 25 14.5" stroke="#000000"/> 		<path id="_184305B4-BABF-4C33-B94E-D601FE020C58frame5" oryx:anchors="top left" style="opacity:1;fill:none;stroke-width:1.5" d="M 8.2 3.1 L 15 3.1" stroke="#000000"/> 	</g> 	 	<g id="_184305B4-BABF-4C33-B94E-D601FE020C58businessRuleTask" transform="scale(0.7,0.7) translate(8,8)" display="none"> 		<rect id="_184305B4-BABF-4C33-B94E-D601FE020C58frame6" oryx:anchors="top left" x="0" y="0" width="22" height="4" style="opacity:1;fill:#B3B1B3;fill-opacity:1;" stroke="#000000"/> 		<rect id="_184305B4-BABF-4C33-B94E-D601FE020C58frame7" oryx:anchors="top left" x="0" y="4" style="opacity:1;fill:none;" width="22" height="12" stroke="#000000"/> 		<path id="_184305B4-BABF-4C33-B94E-D601FE020C58frame8" oryx:anchors="top left" style="opacity:1;fill:none;" d="M 0 10 L 22 10" stroke="#000000"/> 		<path id="_184305B4-BABF-4C33-B94E-D601FE020C58frame9" oryx:anchors="top left" style="opacity:1; fill:none;" d="M 7 4 L 7 16" stroke="#000000"/> 	</g> 	 	<g id="_184305B4-BABF-4C33-B94E-D601FE020C58scriptTask" transform="scale(0.7,0.7) translate(8,8)" display="none"> 		<path oryx:anchors="top left" id="_184305B4-BABF-4C33-B94E-D601FE020C58frame10" style="opacity:1;fill:none;" stroke="#000000" d="M6.402,0.5h14.5c0,0-5.833,2.833-5.833,5.583s4.417,6,4.417,9.167    s-4.167,5.083-4.167,5.083H0.235c0,0,5-2.667,5-5s-4.583-6.75-4.583-9.25S6.402,0.5,6.402,0.5z"/> 		<path oryx:anchors="top left" id="_184305B4-BABF-4C33-B94E-D601FE020C58frame11" style="opacity:1;fill:none;stroke-width:1.5" d="M 3.5 4.5 L 13.5 4.5" stroke="#000000"/> 		<path oryx:anchors="top left" id="_184305B4-BABF-4C33-B94E-D601FE020C58frame12" style="opacity:1;fill:none;stroke-width:1.5" d="M 3.8 8.5 L 13.8 8.5" stroke="#000000"/> 		<path oryx:anchors="top left" id="_184305B4-BABF-4C33-B94E-D601FE020C58frame13" style="opacity:1;fill:none;stroke-width:1.5" d="M 6.3 12.5 L 16.3 12.5" stroke="#000000"/> 		<path oryx:anchors="top left" id="_184305B4-BABF-4C33-B94E-D601FE020C58frame14" style="opacity:1;fill:none;stroke-width:1.5" d="M 6.5 16.5 L 16.5 16.5" stroke="#000000"/> 	</g> 	 	<g id="_184305B4-BABF-4C33-B94E-D601FE020C58userTask" transform="scale(0.7,0.7) translate(8,8)" display="inherit"> 		<path id="_184305B4-BABF-4C33-B94E-D601FE020C58frame15" oryx:anchors="top left" style="opacity:1;fill:#F4F6F7" stroke="#000000" d="M0.585,24.167h24.083v-7.833c0,0-2.333-3.917-7.083-5.167h-9.25    c-4.417,1.333-7.833,5.75-7.833,5.75L0.585,24.167z"/> 		<path id="_184305B4-BABF-4C33-B94E-D601FE020C58frame16" oryx:anchors="top left" style="opacity:1;fill:none" d="M 6 20 L 6 24" stroke="#000000"/> 		<path id="_184305B4-BABF-4C33-B94E-D601FE020C58frame17" oryx:anchors="top left" style="opacity:1;fill:none" d="M 20 20 L 20 24" stroke="#000000"/> 		<circle id="_184305B4-BABF-4C33-B94E-D601FE020C58frame18" oryx:anchors="top left" fill="black" cx="13.002" cy="5.916" r="5.417" stroke="#000000"/> 		<path id="_184305B4-BABF-4C33-B94E-D601FE020C58frame19" oryx:anchors="top left" style="opacity:1;fill:#F0EFF0;" stroke="#000000" d="M8.043,7.083c0,0,2.814-2.426,5.376-1.807s4.624-0.693,4.624-0.693    c0.25,1.688,0.042,3.75-1.458,5.584c0,0,1.083,0.75,1.083,1.5s0.125,1.875-1,3s-5.5,1.25-6.75,0S8.668,12.834,8.668,12    s0.583-1.25,1.25-1.917C8.835,9.5,7.419,7.708,8.043,7.083z"/> 	</g> 	 	<g id="_184305B4-BABF-4C33-B94E-D601FE020C58serviceTask" transform="scale(0.7,0.7) translate(8,8)" display="none"> 		<polygon oryx:anchors="top left" id="_184305B4-BABF-4C33-B94E-D601FE020C58frame20" style="opacity:1;fill:#ffffff" stroke="#000000" points="15.392,5.064 17.954,2.502 20.347,4.895 17.786,7.455     18.729,9.732 22.353,9.732 22.353,13.115 18.731,13.115 17.788,15.392 20.351,17.955 17.958,20.347 15.397,17.786 13.12,18.729     13.12,22.353 9.737,22.353 9.737,18.731 7.46,17.788 4.897,20.35 2.506,17.958 5.066,15.397 4.124,13.12 0.5,13.12 0.5,9.737     4.121,9.737 5.065,7.461 2.503,4.898 4.895,2.506 7.455,5.066 9.732,4.125 9.732,0.5 13.116,0.5 13.116,4.121 "/> 		<circle oryx:anchors="top left" id="_184305B4-BABF-4C33-B94E-D601FE020C58frame21" style="opacity:1;fill:none" stroke="#000000" cx="11.427" cy="11.426" r="3.714"/> 		<polygon oryx:anchors="top left" id="_184305B4-BABF-4C33-B94E-D601FE020C58frame22" style="opacity:1;fill:#ffffff" stroke="#000000" points="21.392,11.064 23.954,8.502 26.347,10.895 23.786,13.455     24.729,15.732 28.353,15.732 28.353,19.115 24.731,19.115 23.788,21.392 26.351,23.955 23.958,26.347 21.397,23.786 19.12,24.729     19.12,28.353 15.737,28.353 15.737,24.731 13.46,23.788 10.897,26.35 8.506,23.958 11.066,21.397 10.124,19.12 6.5,19.12     6.5,15.737 10.121,15.737 11.065,13.461 8.503,10.898 10.895,8.506 13.455,11.066 15.732,10.125 15.732,6.5 19.116,6.5     19.116,10.121 "/> 		<circle oryx:anchors="top left" id="_184305B4-BABF-4C33-B94E-D601FE020C58frame23" style="opacity:1;fill:none;" stroke="#000000" cx="17.427" cy="17.426" r="3.714"/> 	</g> 	 	<g id="_184305B4-BABF-4C33-B94E-D601FE020C58sendTask" display="none"> 		<path id="_184305B4-BABF-4C33-B94E-D601FE020C58stframe24" oryx:anchors="left top" stroke="#FFFFFF" fill="black" stroke-width="1" d="M8,11 L8,21 L24,21 L24,11 L16,17z"/> 		<path id="_184305B4-BABF-4C33-B94E-D601FE020C58stframe25" oryx:anchors="left top" stroke="#FFFFFF" fill="black" stroke-width="1" d="M7,10 L16,17 L25 10z"/> 	</g> 	 	<g id="_184305B4-BABF-4C33-B94E-D601FE020C58receiveTask" display="none"> 		<path id="_184305B4-BABF-4C33-B94E-D601FE020C58frame26" oryx:anchors="left top" stroke="#000000" fill="none" stroke-width="1" d="M8,11 L8,21 L24,21 L24,11z M8,11 L16,17 L24,11"/> 	</g> 	 	<g id="_184305B4-BABF-4C33-B94E-D601FE020C58none" display="inherit"/>  	<g id="_184305B4-BABF-4C33-B94E-D601FE020C58sequential" display="none">         <path oryx:anchors="bottom" fill="none" stroke="#000000" stroke-width="2" d="M46,76h10M46,72h10 M46,68h10" id="_184305B4-BABF-4C33-B94E-D601FE020C58__184305B4-BABF-4C33-B94E-D601FE020C58_20"/>     </g>   </g></g><g class="children" style="overflow:hidden"/><g class="edge"/></g><g class="controls"><g class="dockers"/><g class="magnets" transform="translate(195, 140)"><g pointer-events="all" display="none" transform="translate(-7, 12)"><circle cx="8" cy="8" r="4" stroke="none" fill="red" fill-opacity="0.3"/></g><g pointer-events="all" display="none" transform="translate(-7, 32)"><circle cx="8" cy="8" r="4" stroke="none" fill="red" fill-opacity="0.3"/></g><g pointer-events="all" display="none" transform="translate(-7, 52)"><circle cx="8" cy="8" r="4" stroke="none" fill="red" fill-opacity="0.3"/></g><g pointer-events="all" display="none" transform="translate(17, 71)"><circle cx="8" cy="8" r="4" stroke="none" fill="red" fill-opacity="0.3"/></g><g pointer-events="all" display="none" transform="translate(42, 71)"><circle cx="8" cy="8" r="4" stroke="none" fill="red" fill-opacity="0.3"/></g><g pointer-events="all" display="none" transform="translate(67, 71)"><circle cx="8" cy="8" r="4" stroke="none" fill="red" fill-opacity="0.3"/></g><g pointer-events="all" display="none" transform="translate(91, 12)"><circle cx="8" cy="8" r="4" stroke="none" fill="red" fill-opacity="0.3"/></g><g pointer-events="all" display="none" transform="translate(91, 32)"><circle cx="8" cy="8" r="4" stroke="none" fill="red" fill-opacity="0.3"/></g><g pointer-events="all" display="none" transform="translate(91, 52)"><circle cx="8" cy="8" r="4" stroke="none" fill="red" fill-opacity="0.3"/></g><g pointer-events="all" display="none" transform="translate(17, -7)"><circle cx="8" cy="8" r="4" stroke="none" fill="red" fill-opacity="0.3"/></g><g pointer-events="all" display="none" transform="translate(42, -7)"><circle cx="8" cy="8" r="4" stroke="none" fill="red" fill-opacity="0.3"/></g><g pointer-events="all" display="none" transform="translate(67, -7)"><circle cx="8" cy="8" r="4" stroke="none" fill="red" fill-opacity="0.3"/></g><g pointer-events="all" display="none" transform="translate(42, 32)"><circle cx="8" cy="8" r="4" stroke="none" fill="red" fill-opacity="0.3"/></g></g></g></g><g id="_37C816D4-8D80-4023-82DC-5F006F981292" bpmn2nodeid="_D81E8F53-7F2B-4AA8-99F8-26BB403FE7C5"><g class="stencils" transform="translate(340, 140)"><g class="me"><g pointer-events="fill" oryx:minimumSize="50 40" id="_37C816D4-8D80-4023-82DC-5F006F981292">   	<defs id="_37C816D4-8D80-4023-82DC-5F006F981292__37C816D4-8D80-4023-82DC-5F006F981292_17"> 		<radialGradient id="_37C816D4-8D80-4023-82DC-5F006F981292background" cx="10%" cy="10%" r="100%" fx="10%" fy="10%"> 			<stop offset="0%" stop-color="#ffffff" stop-opacity="1" id="_37C816D4-8D80-4023-82DC-5F006F981292__37C816D4-8D80-4023-82DC-5F006F981292_18"/> 			<stop id="_37C816D4-8D80-4023-82DC-5F006F981292fill_el" offset="100%" stop-color="#fafad2" stop-opacity="1"/> 		</radialGradient> 		<radialGradient id="_37C816D4-8D80-4023-82DC-5F006F981292borderbackground" cx="10%" cy="10%" r="100%" fx="10%" fy="10%"> 			<stop offset="0%" stop-color="#ffffff" stop-opacity="1" id="_37C816D4-8D80-4023-82DC-5F006F981292__37C816D4-8D80-4023-82DC-5F006F981292_19"/> 			<stop id="_37C816D4-8D80-4023-82DC-5F006F981292fill_border" offset="100%" stop-color="#000000" stop-opacity="1" stroke="#000000"/> 		</radialGradient> 	</defs> 	 	<rect id="_37C816D4-8D80-4023-82DC-5F006F981292text_frame" oryx:anchors="bottom top right left" x="1" y="1" width="94" height="79" rx="10" ry="10" stroke="none" stroke-width="0" fill="none"/> 	<rect id="_37C816D4-8D80-4023-82DC-5F006F981292bg_frame" oryx:resize="vertical horizontal" x="0" y="0" width="100" height="80" rx="10" ry="10" stroke="#000000" stroke-width="1" fill="url(#_37C816D4-8D80-4023-82DC-5F006F981292background) #ffffcc"/> 		<text font-size="12" id="_37C816D4-8D80-4023-82DC-5F006F981292text_name" x="50" y="40" oryx:align="middle center" oryx:fittoelem="text_frame" stroke="black" text-anchor="middle" stroke-width="0pt" letter-spacing="-0.01px" fill="#000000" transform="rotate(0 50 40)" visibility="inherit" oryx:fontSize="12"><tspan x="50" y="40" dy="5">task 2</tspan></text>     <g id="_37C816D4-8D80-4023-82DC-5F006F981292manualTask" transform="scale(0.7,0.7) translate(8,8)" display="none">     	<path oryx:anchors="top left" id="_37C816D4-8D80-4023-82DC-5F006F981292frame" style="opacity:1;fill:none;fill-opacity:1;stroke-width:1" d="M0.5,3.751l4.083-3.25c0,0,11.166,0.083,12.083,0.083s-2.417,2.917-1.5,2.917     s11.667,0,12.584,0c1.166,1.708-0.168,3.167-0.834,3.667s0.875,1.917-1,4.417c-0.75,0.25,0.75,1.875-1.333,3.333     c-1.167,0.583,0.583,1.542-1.25,2.833c-1.167,0-20.833,0.083-20.833,0.083l-2-1.333V3.751z" stroke="#000000"/> 		<path id="_37C816D4-8D80-4023-82DC-5F006F981292frame2" oryx:anchors="top left" style="opacity:1;fill:none;stroke-width:2" d="M 13.5 7 L 27 7" stroke="#000000"/> 		<path id="_37C816D4-8D80-4023-82DC-5F006F981292frame3" oryx:anchors="top left" style="opacity:1;fill:none;stroke-width:2" d="M 13.5 11 L 26 11" stroke="#000000"/> 		<path id="_37C816D4-8D80-4023-82DC-5F006F981292frame4" oryx:anchors="top left" style="opacity:1;fill:none;stroke-width:1.5" d="M 14 14.5 L 25 14.5" stroke="#000000"/> 		<path id="_37C816D4-8D80-4023-82DC-5F006F981292frame5" oryx:anchors="top left" style="opacity:1;fill:none;stroke-width:1.5" d="M 8.2 3.1 L 15 3.1" stroke="#000000"/> 	</g> 	 	<g id="_37C816D4-8D80-4023-82DC-5F006F981292businessRuleTask" transform="scale(0.7,0.7) translate(8,8)" display="none"> 		<rect id="_37C816D4-8D80-4023-82DC-5F006F981292frame6" oryx:anchors="top left" x="0" y="0" width="22" height="4" style="opacity:1;fill:#B3B1B3;fill-opacity:1;" stroke="#000000"/> 		<rect id="_37C816D4-8D80-4023-82DC-5F006F981292frame7" oryx:anchors="top left" x="0" y="4" style="opacity:1;fill:none;" width="22" height="12" stroke="#000000"/> 		<path id="_37C816D4-8D80-4023-82DC-5F006F981292frame8" oryx:anchors="top left" style="opacity:1;fill:none;" d="M 0 10 L 22 10" stroke="#000000"/> 		<path id="_37C816D4-8D80-4023-82DC-5F006F981292frame9" oryx:anchors="top left" style="opacity:1; fill:none;" d="M 7 4 L 7 16" stroke="#000000"/> 	</g> 	 	<g id="_37C816D4-8D80-4023-82DC-5F006F981292scriptTask" transform="scale(0.7,0.7) translate(8,8)" display="none"> 		<path oryx:anchors="top left" id="_37C816D4-8D80-4023-82DC-5F006F981292frame10" style="opacity:1;fill:none;" stroke="#000000" d="M6.402,0.5h14.5c0,0-5.833,2.833-5.833,5.583s4.417,6,4.417,9.167    s-4.167,5.083-4.167,5.083H0.235c0,0,5-2.667,5-5s-4.583-6.75-4.583-9.25S6.402,0.5,6.402,0.5z"/> 		<path oryx:anchors="top left" id="_37C816D4-8D80-4023-82DC-5F006F981292frame11" style="opacity:1;fill:none;stroke-width:1.5" d="M 3.5 4.5 L 13.5 4.5" stroke="#000000"/> 		<path oryx:anchors="top left" id="_37C816D4-8D80-4023-82DC-5F006F981292frame12" style="opacity:1;fill:none;stroke-width:1.5" d="M 3.8 8.5 L 13.8 8.5" stroke="#000000"/> 		<path oryx:anchors="top left" id="_37C816D4-8D80-4023-82DC-5F006F981292frame13" style="opacity:1;fill:none;stroke-width:1.5" d="M 6.3 12.5 L 16.3 12.5" stroke="#000000"/> 		<path oryx:anchors="top left" id="_37C816D4-8D80-4023-82DC-5F006F981292frame14" style="opacity:1;fill:none;stroke-width:1.5" d="M 6.5 16.5 L 16.5 16.5" stroke="#000000"/> 	</g> 	 	<g id="_37C816D4-8D80-4023-82DC-5F006F981292userTask" transform="scale(0.7,0.7) translate(8,8)" display="inherit"> 		<path id="_37C816D4-8D80-4023-82DC-5F006F981292frame15" oryx:anchors="top left" style="opacity:1;fill:#F4F6F7" stroke="#000000" d="M0.585,24.167h24.083v-7.833c0,0-2.333-3.917-7.083-5.167h-9.25    c-4.417,1.333-7.833,5.75-7.833,5.75L0.585,24.167z"/> 		<path id="_37C816D4-8D80-4023-82DC-5F006F981292frame16" oryx:anchors="top left" style="opacity:1;fill:none" d="M 6 20 L 6 24" stroke="#000000"/> 		<path id="_37C816D4-8D80-4023-82DC-5F006F981292frame17" oryx:anchors="top left" style="opacity:1;fill:none" d="M 20 20 L 20 24" stroke="#000000"/> 		<circle id="_37C816D4-8D80-4023-82DC-5F006F981292frame18" oryx:anchors="top left" fill="black" cx="13.002" cy="5.916" r="5.417" stroke="#000000"/> 		<path id="_37C816D4-8D80-4023-82DC-5F006F981292frame19" oryx:anchors="top left" style="opacity:1;fill:#F0EFF0;" stroke="#000000" d="M8.043,7.083c0,0,2.814-2.426,5.376-1.807s4.624-0.693,4.624-0.693    c0.25,1.688,0.042,3.75-1.458,5.584c0,0,1.083,0.75,1.083,1.5s0.125,1.875-1,3s-5.5,1.25-6.75,0S8.668,12.834,8.668,12    s0.583-1.25,1.25-1.917C8.835,9.5,7.419,7.708,8.043,7.083z"/> 	</g> 	 	<g id="_37C816D4-8D80-4023-82DC-5F006F981292serviceTask" transform="scale(0.7,0.7) translate(8,8)" display="none"> 		<polygon oryx:anchors="top left" id="_37C816D4-8D80-4023-82DC-5F006F981292frame20" style="opacity:1;fill:#ffffff" stroke="#000000" points="15.392,5.064 17.954,2.502 20.347,4.895 17.786,7.455     18.729,9.732 22.353,9.732 22.353,13.115 18.731,13.115 17.788,15.392 20.351,17.955 17.958,20.347 15.397,17.786 13.12,18.729     13.12,22.353 9.737,22.353 9.737,18.731 7.46,17.788 4.897,20.35 2.506,17.958 5.066,15.397 4.124,13.12 0.5,13.12 0.5,9.737     4.121,9.737 5.065,7.461 2.503,4.898 4.895,2.506 7.455,5.066 9.732,4.125 9.732,0.5 13.116,0.5 13.116,4.121 "/> 		<circle oryx:anchors="top left" id="_37C816D4-8D80-4023-82DC-5F006F981292frame21" style="opacity:1;fill:none" stroke="#000000" cx="11.427" cy="11.426" r="3.714"/> 		<polygon oryx:anchors="top left" id="_37C816D4-8D80-4023-82DC-5F006F981292frame22" style="opacity:1;fill:#ffffff" stroke="#000000" points="21.392,11.064 23.954,8.502 26.347,10.895 23.786,13.455     24.729,15.732 28.353,15.732 28.353,19.115 24.731,19.115 23.788,21.392 26.351,23.955 23.958,26.347 21.397,23.786 19.12,24.729     19.12,28.353 15.737,28.353 15.737,24.731 13.46,23.788 10.897,26.35 8.506,23.958 11.066,21.397 10.124,19.12 6.5,19.12     6.5,15.737 10.121,15.737 11.065,13.461 8.503,10.898 10.895,8.506 13.455,11.066 15.732,10.125 15.732,6.5 19.116,6.5     19.116,10.121 "/> 		<circle oryx:anchors="top left" id="_37C816D4-8D80-4023-82DC-5F006F981292frame23" style="opacity:1;fill:none;" stroke="#000000" cx="17.427" cy="17.426" r="3.714"/> 	</g> 	 	<g id="_37C816D4-8D80-4023-82DC-5F006F981292sendTask" display="none"> 		<path id="_37C816D4-8D80-4023-82DC-5F006F981292stframe24" oryx:anchors="left top" stroke="#FFFFFF" fill="black" stroke-width="1" d="M8,11 L8,21 L24,21 L24,11 L16,17z"/> 		<path id="_37C816D4-8D80-4023-82DC-5F006F981292stframe25" oryx:anchors="left top" stroke="#FFFFFF" fill="black" stroke-width="1" d="M7,10 L16,17 L25 10z"/> 	</g> 	 	<g id="_37C816D4-8D80-4023-82DC-5F006F981292receiveTask" display="none"> 		<path id="_37C816D4-8D80-4023-82DC-5F006F981292frame26" oryx:anchors="left top" stroke="#000000" fill="none" stroke-width="1" d="M8,11 L8,21 L24,21 L24,11z M8,11 L16,17 L24,11"/> 	</g> 	 	<g id="_37C816D4-8D80-4023-82DC-5F006F981292none" display="inherit"/>  	<g id="_37C816D4-8D80-4023-82DC-5F006F981292sequential" display="none">         <path oryx:anchors="bottom" fill="none" stroke="#000000" stroke-width="2" d="M46,76h10M46,72h10 M46,68h10" id="_37C816D4-8D80-4023-82DC-5F006F981292__37C816D4-8D80-4023-82DC-5F006F981292_20"/>     </g>   </g></g><g class="children" style="overflow:hidden"/><g class="edge"/></g><g class="controls"><g class="dockers"/><g class="magnets" transform="translate(340, 140)"><g pointer-events="all" display="none" transform="translate(-7, 12)"><circle cx="8" cy="8" r="4" stroke="none" fill="red" fill-opacity="0.3"/></g><g pointer-events="all" display="none" transform="translate(-7, 32)"><circle cx="8" cy="8" r="4" stroke="none" fill="red" fill-opacity="0.3"/></g><g pointer-events="all" display="none" transform="translate(-7, 52)"><circle cx="8" cy="8" r="4" stroke="none" fill="red" fill-opacity="0.3"/></g><g pointer-events="all" display="none" transform="translate(17, 71)"><circle cx="8" cy="8" r="4" stroke="none" fill="red" fill-opacity="0.3"/></g><g pointer-events="all" display="none" transform="translate(42, 71)"><circle cx="8" cy="8" r="4" stroke="none" fill="red" fill-opacity="0.3"/></g><g pointer-events="all" display="none" transform="translate(67, 71)"><circle cx="8" cy="8" r="4" stroke="none" fill="red" fill-opacity="0.3"/></g><g pointer-events="all" display="none" transform="translate(91, 12)"><circle cx="8" cy="8" r="4" stroke="none" fill="red" fill-opacity="0.3"/></g><g pointer-events="all" display="none" transform="translate(91, 32)"><circle cx="8" cy="8" r="4" stroke="none" fill="red" fill-opacity="0.3"/></g><g pointer-events="all" display="none" transform="translate(91, 52)"><circle cx="8" cy="8" r="4" stroke="none" fill="red" fill-opacity="0.3"/></g><g pointer-events="all" display="none" transform="translate(17, -7)"><circle cx="8" cy="8" r="4" stroke="none" fill="red" fill-opacity="0.3"/></g><g pointer-events="all" display="none" transform="translate(42, -7)"><circle cx="8" cy="8" r="4" stroke="none" fill="red" fill-opacity="0.3"/></g><g pointer-events="all" display="none" transform="translate(67, -7)"><circle cx="8" cy="8" r="4" stroke="none" fill="red" fill-opacity="0.3"/></g><g pointer-events="all" display="none" transform="translate(42, 32)"><circle cx="8" cy="8" r="4" stroke="none" fill="red" fill-opacity="0.3"/></g></g></g></g><g id="_A2537D53-B0FA-4A85-A4D6-9B316D9A36B1" bpmn2nodeid="_200339DC-14B9-4E81-BC29-1515541B878B"><g class="stencils" transform="translate(485, 166)"><g class="me"><g pointer-events="fill" id="_A2537D53-B0FA-4A85-A4D6-9B316D9A36B1">      <defs id="_A2537D53-B0FA-4A85-A4D6-9B316D9A36B1__A2537D53-B0FA-4A85-A4D6-9B316D9A36B1_5"> 		<radialGradient id="_A2537D53-B0FA-4A85-A4D6-9B316D9A36B1background" cx="10%" cy="10%" r="100%" fx="10%" fy="10%"> 			<stop offset="0%" stop-color="#ffffff" stop-opacity="1" id="_A2537D53-B0FA-4A85-A4D6-9B316D9A36B1__A2537D53-B0FA-4A85-A4D6-9B316D9A36B1_6"/> 			<stop id="_A2537D53-B0FA-4A85-A4D6-9B316D9A36B1fill_el" offset="100%" stop-color="#ff6347" stop-opacity="1"/> 		</radialGradient> 	</defs> 	     <circle id="_A2537D53-B0FA-4A85-A4D6-9B316D9A36B1bg_frame" cx="14" cy="14" r="14" stroke="#000000" fill="url(#_A2537D53-B0FA-4A85-A4D6-9B316D9A36B1background) white" stroke-width="3"/> 	<text font-size="11" id="_A2537D53-B0FA-4A85-A4D6-9B316D9A36B1text_name" x="14" y="30" oryx:align="top center" stroke="black" stroke-width="0pt" letter-spacing="-0.01px" fill="#000000" text-anchor="middle" transform="rotate(0 14 30)" visibility="inherit" oryx:fontSize="11"/>   </g></g><g class="children" style="overflow:hidden"/><g class="edge"/></g><g class="controls"><g class="dockers"/><g class="magnets" transform="translate(485, 166)"><g pointer-events="all" display="none" transform="translate(6, 6)"><circle cx="8" cy="8" r="4" stroke="none" fill="red" fill-opacity="0.3"/></g></g></g></g></g><g class="edge"><g id="_80398AC4-CB1E-4598-86BF-2423D9B12A4B" bpmn2nodeid="_9517C72C-3C44-4325-9BF5-19F9BD349691"><g class="stencils"><g class="me"><g pointer-events="painted" bpmn2nodeid="_6F0E7A62-17FB-49FB-803F-3832F4E9529A"><path id="_80398AC4-CB1E-4598-86BF-2423D9B12A4B_1" d="M150.609375 180L194.15625 180 " stroke="#000000" fill="none" stroke-width="2" stroke-linecap="round" stroke-linejoin="round" marker-start="url(#_80398AC4-CB1E-4598-86BF-2423D9B12A4Bstart)" marker-end="url(#_80398AC4-CB1E-4598-86BF-2423D9B12A4Bend)"/></g><text id="_80398AC4-CB1E-4598-86BF-2423D9B12A4Btext_name" font-size="12" x="164.609375" y="166" oryx:edgePosition="startTop" stroke-width="0pt" letter-spacing="-0.01px" fill="#000000" text-anchor="start" transform="rotate(360 150.609375 180)" visibility="inherit" oryx:fontSize="12"/></g><g class="children" style="overflow:hidden"/><g class="edge"/></g><g class="controls"><g class="dockers"/><g class="magnets"/></g></g><g id="_C9BD219C-D517-4BF0-AE5B-091608240196" bpmn2nodeid="_BF677E98-F2AD-4F2E-86A4-E8BAC517DE69"><g class="stencils"><g class="me"><g pointer-events="painted" bpmn2nodeid="_305AA5F7-42B2-4E8D-9446-20B27509A55A"><path id="_C9BD219C-D517-4BF0-AE5B-091608240196_1" d="M295.84375 180L339.15625 180 " stroke="#000000" fill="none" stroke-width="2" stroke-linecap="round" stroke-linejoin="round" marker-start="url(#_C9BD219C-D517-4BF0-AE5B-091608240196start)" marker-end="url(#_C9BD219C-D517-4BF0-AE5B-091608240196end)"/></g><text id="_C9BD219C-D517-4BF0-AE5B-091608240196text_name" font-size="12" x="309.84375" y="166" oryx:edgePosition="startTop" stroke-width="0pt" letter-spacing="-0.01px" fill="#000000" text-anchor="start" transform="rotate(360 295.84375 180)" visibility="inherit" oryx:fontSize="12"/></g><g class="children" style="overflow:hidden"/><g class="edge"/></g><g class="controls"><g class="dockers"/><g class="magnets"/></g></g><g id="_9B8C11BA-44F0-4001-B8B0-1CDDF9ECE854" bpmn2nodeid="_91E5EE39-4185-448D-84CA-D5C290137DA7"><g class="stencils"><g class="me"><g pointer-events="painted" bpmn2nodeid="_9849C3C2-6A80-4E3C-9D7B-F6458E4AD9D6"><path id="_9B8C11BA-44F0-4001-B8B0-1CDDF9ECE854_1" d="M440.390625 180L484.375 180 " stroke="#000000" fill="none" stroke-width="2" stroke-linecap="round" stroke-linejoin="round" marker-start="url(#_9B8C11BA-44F0-4001-B8B0-1CDDF9ECE854start)" marker-end="url(#_9B8C11BA-44F0-4001-B8B0-1CDDF9ECE854end)"/></g><text id="_9B8C11BA-44F0-4001-B8B0-1CDDF9ECE854text_name" font-size="12" x="454.390625" y="166" oryx:edgePosition="startTop" stroke-width="0pt" letter-spacing="-0.01px" fill="#000000" text-anchor="start" transform="rotate(360 440.390625 180)" visibility="inherit" oryx:fontSize="12"/></g><g class="children" style="overflow:hidden"/><g class="edge"/></g><g class="controls"><g class="dockers"/><g class="magnets"/></g></g></g><text id="_15684C89-4514-465F-A81B-F0965BDA2FA9" style="stroke-width:1;fill:rgb(177,194,214);font-family:arial;font-weight:bold" font-size="12" onclick="ORYX.Plugins.CanvasTitle.openTextualAnalysis()" onmouseover="ORYX.Plugins.CanvasTitle.addToolTip('_15684C89-4514-465F-A81B-F0965BDA2FA9')" transform="translate(10, 20)">poc2 v.1.0 (process.POC2)</text></g></g></svg>