<svg xmlns="http://www.w3.org/2000/svg" xmlns:oryx="http://oryx-editor.org" id="_008AE423-3A49-4DC9-A7F3-CCBD63D88FEF" width="638" height="265" xmlns:xlink="http://www.w3.org/1999/xlink" xmlns:svg="http://www.w3.org/2000/svg"><defs><marker id="_7258FDEA-98B6-41FF-8FC3-65629173C990start" refX="1" refY="5" markerUnits="userSpaceOnUse" markerWidth="17" markerHeight="11" orient="auto" fill="#000000" stroke="#000000"> 	  		<path id="_7258FDEA-98B6-41FF-8FC3-65629173C990conditional" d="M 0 5 L 8 0 L 16 5 L 8 10 L 0 5" fill="white" stroke="#000000" stroke-width="1" display="none"/> 			<path id="_7258FDEA-98B6-41FF-8FC3-65629173C990default" d="M 5 0 L 11 10" fill="white" stroke="#000000" stroke-width="1" display="none"/> 	  	</marker><marker id="_7258FDEA-98B6-41FF-8FC3-65629173C990end" refX="15" refY="6" markerUnits="userSpaceOnUse" markerWidth="15" markerHeight="12" orient="auto" fill="#000000" stroke="#000000"> 	  		<path id="_7258FDEA-98B6-41FF-8FC3-65629173C990frame2" d="M 0 1 L 15 6 L 0 11z" fill="#000000" stroke="#000000" stroke-linejoin="round" stroke-width="2"/> 	  	</marker><marker id="_CE38B5DA-90E3-4BFF-BA02-8E745020A76Cstart" refX="1" refY="5" markerUnits="userSpaceOnUse" markerWidth="17" markerHeight="11" orient="auto" fill="#000000" stroke="#000000"> 	  		<path id="_CE38B5DA-90E3-4BFF-BA02-8E745020A76Cconditional" d="M 0 5 L 8 0 L 16 5 L 8 10 L 0 5" fill="white" stroke="#000000" stroke-width="1" display="none"/> 			<path id="_CE38B5DA-90E3-4BFF-BA02-8E745020A76Cdefault" d="M 5 0 L 11 10" fill="white" stroke="#000000" stroke-width="1" display="none"/> 	  	</marker><marker id="_CE38B5DA-90E3-4BFF-BA02-8E745020A76Cend" refX="15" refY="6" markerUnits="userSpaceOnUse" markerWidth="15" markerHeight="12" orient="auto" fill="#000000" stroke="#000000"> 	  		<path id="_CE38B5DA-90E3-4BFF-BA02-8E745020A76Cframe2" d="M 0 1 L 15 6 L 0 11z" fill="#000000" stroke="#000000" stroke-linejoin="round" stroke-width="2"/> 	  	</marker><marker id="_378F803D-270D-46E6-A6B6-857E3E0FB67Cstart" refX="1" refY="5" markerUnits="userSpaceOnUse" markerWidth="17" markerHeight="11" orient="auto" fill="#000000" stroke="#000000"> 	  		<path id="_378F803D-270D-46E6-A6B6-857E3E0FB67Cconditional" d="M 0 5 L 8 0 L 16 5 L 8 10 L 0 5" fill="white" stroke="#000000" stroke-width="1" display="none"/> 			<path id="_378F803D-270D-46E6-A6B6-857E3E0FB67Cdefault" d="M 5 0 L 11 10" fill="white" stroke="#000000" stroke-width="1" display="none"/> 	  	</marker><marker id="_378F803D-270D-46E6-A6B6-857E3E0FB67Cend" refX="15" refY="6" markerUnits="userSpaceOnUse" markerWidth="15" markerHeight="12" orient="auto" fill="#000000" stroke="#000000"> 	  		<path id="_378F803D-270D-46E6-A6B6-857E3E0FB67Cframe2" d="M 0 1 L 15 6 L 0 11z" fill="#000000" stroke="#000000" stroke-linejoin="round" stroke-width="2"/> 	  	</marker></defs><g stroke="none" font-family="Verdana, sans-serif" font-size-adjust="none" font-style="normal" font-variant="normal" font-weight="normal" line-heigth="normal" font-size="12"><g class="stencils" transform="translate(15, 16)"><g class="me"/><g class="children"><g id="_F57F774B-6E29-4410-94B7-2A33E0DA93A0" bpmn2nodeid="processStartEvent"><g class="stencils" transform="translate(75, 165)"><g class="me"><g pointer-events="fill" id="_F57F774B-6E29-4410-94B7-2A33E0DA93A0">        <defs id="_F57F774B-6E29-4410-94B7-2A33E0DA93A0__F57F774B-6E29-4410-94B7-2A33E0DA93A0_5"> 		<radialGradient id="_F57F774B-6E29-4410-94B7-2A33E0DA93A0background" cx="10%" cy="10%" r="100%" fx="10%" fy="10%"> 			<stop offset="0%" stop-color="#ffffff" stop-opacity="1" id="_F57F774B-6E29-4410-94B7-2A33E0DA93A0__F57F774B-6E29-4410-94B7-2A33E0DA93A0_6"/> 			<stop id="_F57F774B-6E29-4410-94B7-2A33E0DA93A0fill_el" offset="100%" stop-color="#9acd32" stop-opacity="1"/> 		</radialGradient> 	</defs> 	     <circle id="_F57F774B-6E29-4410-94B7-2A33E0DA93A0bg_frame" cx="15" cy="15" r="15" stroke="#000000" fill="url(#_F57F774B-6E29-4410-94B7-2A33E0DA93A0background) white" stroke-width="1" style="stroke-dasharray: 5.5, 3"/>      <circle id="_F57F774B-6E29-4410-94B7-2A33E0DA93A0frame" cx="15" cy="15" r="15" stroke="#000000" fill="none" stroke-width="1" display="inherit"/>  	<text font-size="11" id="_F57F774B-6E29-4410-94B7-2A33E0DA93A0text_name" x="15" y="32" oryx:align="top center" stroke="black" stroke-width="0pt" letter-spacing="-0.01px" fill="#000000" text-anchor="middle" transform="rotate(0 15 32)" visibility="inherit" oryx:fontSize="11"><tspan x="15" y="32" dy="11">Inicio</tspan></text>   </g></g><g class="children" style="overflow:hidden"/><g class="edge"/></g><g class="controls"><g class="dockers"/><g class="magnets" transform="translate(75, 165)"><g pointer-events="all" display="none" transform="translate(7, 7)"><circle cx="8" cy="8" r="4" stroke="none" fill="red" fill-opacity="0.3"/></g></g></g></g><g id="_9386C8ED-9657-49B9-A0A8-0EE07593F6FF" bpmn2nodeid="_BC8E2A66-5F1E-4612-90C8-A3FF035BCDF5"><g class="stencils" transform="translate(360, 140)"><g class="me"><g pointer-events="fill" oryx:minimumSize="50 40" id="_9386C8ED-9657-49B9-A0A8-0EE07593F6FF">   	<defs id="_9386C8ED-9657-49B9-A0A8-0EE07593F6FF__9386C8ED-9657-49B9-A0A8-0EE07593F6FF_17"> 		<radialGradient id="_9386C8ED-9657-49B9-A0A8-0EE07593F6FFbackground" cx="10%" cy="10%" r="100%" fx="10%" fy="10%"> 			<stop offset="0%" stop-color="#ffffff" stop-opacity="1" id="_9386C8ED-9657-49B9-A0A8-0EE07593F6FF__9386C8ED-9657-49B9-A0A8-0EE07593F6FF_18"/> 			<stop id="_9386C8ED-9657-49B9-A0A8-0EE07593F6FFfill_el" offset="100%" stop-color="#fafad2" stop-opacity="1"/> 		</radialGradient> 		<radialGradient id="_9386C8ED-9657-49B9-A0A8-0EE07593F6FFborderbackground" cx="10%" cy="10%" r="100%" fx="10%" fy="10%"> 			<stop offset="0%" stop-color="#ffffff" stop-opacity="1" id="_9386C8ED-9657-49B9-A0A8-0EE07593F6FF__9386C8ED-9657-49B9-A0A8-0EE07593F6FF_19"/> 			<stop id="_9386C8ED-9657-49B9-A0A8-0EE07593F6FFfill_border" offset="100%" stop-color="#000000" stop-opacity="1" stroke="#000000"/> 		</radialGradient> 	</defs> 	 	<rect id="_9386C8ED-9657-49B9-A0A8-0EE07593F6FFtext_frame" oryx:anchors="bottom top right left" x="1" y="1" width="94" height="79" rx="10" ry="10" stroke="none" stroke-width="0" fill="none"/> 	<rect id="_9386C8ED-9657-49B9-A0A8-0EE07593F6FFbg_frame" oryx:resize="vertical horizontal" x="0" y="0" width="100" height="80" rx="10" ry="10" stroke="#000000" stroke-width="1" fill="url(#_9386C8ED-9657-49B9-A0A8-0EE07593F6FFbackground) #ffffcc"/> 		<text font-size="12" id="_9386C8ED-9657-49B9-A0A8-0EE07593F6FFtext_name" x="50" y="40" oryx:align="middle center" oryx:fittoelem="text_frame" stroke="black" text-anchor="middle" stroke-width="0pt" letter-spacing="-0.01px" fill="#000000" transform="rotate(0 50 40)" visibility="inherit" oryx:fontSize="12"><tspan x="50" y="40" dy="5" id="ext-gen619">HashMap</tspan></text>     <g id="_9386C8ED-9657-49B9-A0A8-0EE07593F6FFmanualTask" transform="scale(0.7,0.7) translate(8,8)" display="none">     	<path oryx:anchors="top left" id="_9386C8ED-9657-49B9-A0A8-0EE07593F6FFframe" style="opacity:1;fill:none;fill-opacity:1;stroke-width:1" d="M0.5,3.751l4.083-3.25c0,0,11.166,0.083,12.083,0.083s-2.417,2.917-1.5,2.917     s11.667,0,12.584,0c1.166,1.708-0.168,3.167-0.834,3.667s0.875,1.917-1,4.417c-0.75,0.25,0.75,1.875-1.333,3.333     c-1.167,0.583,0.583,1.542-1.25,2.833c-1.167,0-20.833,0.083-20.833,0.083l-2-1.333V3.751z" stroke="#000000"/> 		<path id="_9386C8ED-9657-49B9-A0A8-0EE07593F6FFframe2" oryx:anchors="top left" style="opacity:1;fill:none;stroke-width:2" d="M 13.5 7 L 27 7" stroke="#000000"/> 		<path id="_9386C8ED-9657-49B9-A0A8-0EE07593F6FFframe3" oryx:anchors="top left" style="opacity:1;fill:none;stroke-width:2" d="M 13.5 11 L 26 11" stroke="#000000"/> 		<path id="_9386C8ED-9657-49B9-A0A8-0EE07593F6FFframe4" oryx:anchors="top left" style="opacity:1;fill:none;stroke-width:1.5" d="M 14 14.5 L 25 14.5" stroke="#000000"/> 		<path id="_9386C8ED-9657-49B9-A0A8-0EE07593F6FFframe5" oryx:anchors="top left" style="opacity:1;fill:none;stroke-width:1.5" d="M 8.2 3.1 L 15 3.1" stroke="#000000"/> 	</g> 	 	<g id="_9386C8ED-9657-49B9-A0A8-0EE07593F6FFbusinessRuleTask" transform="scale(0.7,0.7) translate(8,8)" display="none"> 		<rect id="_9386C8ED-9657-49B9-A0A8-0EE07593F6FFframe6" oryx:anchors="top left" x="0" y="0" width="22" height="4" style="opacity:1;fill:#B3B1B3;fill-opacity:1;" stroke="#000000"/> 		<rect id="_9386C8ED-9657-49B9-A0A8-0EE07593F6FFframe7" oryx:anchors="top left" x="0" y="4" style="opacity:1;fill:none;" width="22" height="12" stroke="#000000"/> 		<path id="_9386C8ED-9657-49B9-A0A8-0EE07593F6FFframe8" oryx:anchors="top left" style="opacity:1;fill:none;" d="M 0 10 L 22 10" stroke="#000000"/> 		<path id="_9386C8ED-9657-49B9-A0A8-0EE07593F6FFframe9" oryx:anchors="top left" style="opacity:1; fill:none;" d="M 7 4 L 7 16" stroke="#000000"/> 	</g> 	 	<g id="_9386C8ED-9657-49B9-A0A8-0EE07593F6FFscriptTask" transform="scale(0.7,0.7) translate(8,8)" display="inherit"> 		<path oryx:anchors="top left" id="_9386C8ED-9657-49B9-A0A8-0EE07593F6FFframe10" style="opacity:1;fill:none;" stroke="#000000" d="M6.402,0.5h14.5c0,0-5.833,2.833-5.833,5.583s4.417,6,4.417,9.167    s-4.167,5.083-4.167,5.083H0.235c0,0,5-2.667,5-5s-4.583-6.75-4.583-9.25S6.402,0.5,6.402,0.5z"/> 		<path oryx:anchors="top left" id="_9386C8ED-9657-49B9-A0A8-0EE07593F6FFframe11" style="opacity:1;fill:none;stroke-width:1.5" d="M 3.5 4.5 L 13.5 4.5" stroke="#000000"/> 		<path oryx:anchors="top left" id="_9386C8ED-9657-49B9-A0A8-0EE07593F6FFframe12" style="opacity:1;fill:none;stroke-width:1.5" d="M 3.8 8.5 L 13.8 8.5" stroke="#000000"/> 		<path oryx:anchors="top left" id="_9386C8ED-9657-49B9-A0A8-0EE07593F6FFframe13" style="opacity:1;fill:none;stroke-width:1.5" d="M 6.3 12.5 L 16.3 12.5" stroke="#000000"/> 		<path oryx:anchors="top left" id="_9386C8ED-9657-49B9-A0A8-0EE07593F6FFframe14" style="opacity:1;fill:none;stroke-width:1.5" d="M 6.5 16.5 L 16.5 16.5" stroke="#000000"/> 	</g> 	 	<g id="_9386C8ED-9657-49B9-A0A8-0EE07593F6FFuserTask" transform="scale(0.7,0.7) translate(8,8)" display="none"> 		<path id="_9386C8ED-9657-49B9-A0A8-0EE07593F6FFframe15" oryx:anchors="top left" style="opacity:1;fill:#F4F6F7" stroke="#000000" d="M0.585,24.167h24.083v-7.833c0,0-2.333-3.917-7.083-5.167h-9.25    c-4.417,1.333-7.833,5.75-7.833,5.75L0.585,24.167z"/> 		<path id="_9386C8ED-9657-49B9-A0A8-0EE07593F6FFframe16" oryx:anchors="top left" style="opacity:1;fill:none" d="M 6 20 L 6 24" stroke="#000000"/> 		<path id="_9386C8ED-9657-49B9-A0A8-0EE07593F6FFframe17" oryx:anchors="top left" style="opacity:1;fill:none" d="M 20 20 L 20 24" stroke="#000000"/> 		<circle id="_9386C8ED-9657-49B9-A0A8-0EE07593F6FFframe18" oryx:anchors="top left" fill="black" cx="13.002" cy="5.916" r="5.417" stroke="#000000"/> 		<path id="_9386C8ED-9657-49B9-A0A8-0EE07593F6FFframe19" oryx:anchors="top left" style="opacity:1;fill:#F0EFF0;" stroke="#000000" d="M8.043,7.083c0,0,2.814-2.426,5.376-1.807s4.624-0.693,4.624-0.693    c0.25,1.688,0.042,3.75-1.458,5.584c0,0,1.083,0.75,1.083,1.5s0.125,1.875-1,3s-5.5,1.25-6.75,0S8.668,12.834,8.668,12    s0.583-1.25,1.25-1.917C8.835,9.5,7.419,7.708,8.043,7.083z"/> 	</g> 	 	<g id="_9386C8ED-9657-49B9-A0A8-0EE07593F6FFserviceTask" transform="scale(0.7,0.7) translate(8,8)" display="none"> 		<polygon oryx:anchors="top left" id="_9386C8ED-9657-49B9-A0A8-0EE07593F6FFframe20" style="opacity:1;fill:#ffffff" stroke="#000000" points="15.392,5.064 17.954,2.502 20.347,4.895 17.786,7.455     18.729,9.732 22.353,9.732 22.353,13.115 18.731,13.115 17.788,15.392 20.351,17.955 17.958,20.347 15.397,17.786 13.12,18.729     13.12,22.353 9.737,22.353 9.737,18.731 7.46,17.788 4.897,20.35 2.506,17.958 5.066,15.397 4.124,13.12 0.5,13.12 0.5,9.737     4.121,9.737 5.065,7.461 2.503,4.898 4.895,2.506 7.455,5.066 9.732,4.125 9.732,0.5 13.116,0.5 13.116,4.121 "/> 		<circle oryx:anchors="top left" id="_9386C8ED-9657-49B9-A0A8-0EE07593F6FFframe21" style="opacity:1;fill:none" stroke="#000000" cx="11.427" cy="11.426" r="3.714"/> 		<polygon oryx:anchors="top left" id="_9386C8ED-9657-49B9-A0A8-0EE07593F6FFframe22" style="opacity:1;fill:#ffffff" stroke="#000000" points="21.392,11.064 23.954,8.502 26.347,10.895 23.786,13.455     24.729,15.732 28.353,15.732 28.353,19.115 24.731,19.115 23.788,21.392 26.351,23.955 23.958,26.347 21.397,23.786 19.12,24.729     19.12,28.353 15.737,28.353 15.737,24.731 13.46,23.788 10.897,26.35 8.506,23.958 11.066,21.397 10.124,19.12 6.5,19.12     6.5,15.737 10.121,15.737 11.065,13.461 8.503,10.898 10.895,8.506 13.455,11.066 15.732,10.125 15.732,6.5 19.116,6.5     19.116,10.121 "/> 		<circle oryx:anchors="top left" id="_9386C8ED-9657-49B9-A0A8-0EE07593F6FFframe23" style="opacity:1;fill:none;" stroke="#000000" cx="17.427" cy="17.426" r="3.714"/> 	</g> 	 	<g id="_9386C8ED-9657-49B9-A0A8-0EE07593F6FFsendTask" display="none"> 		<path id="_9386C8ED-9657-49B9-A0A8-0EE07593F6FFstframe24" oryx:anchors="left top" stroke="#FFFFFF" fill="black" stroke-width="1" d="M8,11 L8,21 L24,21 L24,11 L16,17z"/> 		<path id="_9386C8ED-9657-49B9-A0A8-0EE07593F6FFstframe25" oryx:anchors="left top" stroke="#FFFFFF" fill="black" stroke-width="1" d="M7,10 L16,17 L25 10z"/> 	</g> 	 	<g id="_9386C8ED-9657-49B9-A0A8-0EE07593F6FFreceiveTask" display="none"> 		<path id="_9386C8ED-9657-49B9-A0A8-0EE07593F6FFframe26" oryx:anchors="left top" stroke="#000000" fill="none" stroke-width="1" d="M8,11 L8,21 L24,21 L24,11z M8,11 L16,17 L24,11"/> 	</g> 	 	<g id="_9386C8ED-9657-49B9-A0A8-0EE07593F6FFnone" display="inherit"/>  	<g id="_9386C8ED-9657-49B9-A0A8-0EE07593F6FFsequential" display="none">         <path oryx:anchors="bottom" fill="none" stroke="#000000" stroke-width="2" d="M46,76h10M46,72h10 M46,68h10" id="_9386C8ED-9657-49B9-A0A8-0EE07593F6FF__9386C8ED-9657-49B9-A0A8-0EE07593F6FF_20"/>     </g>   </g></g><g class="children" style="overflow:hidden"/><g class="edge"/></g><g class="controls"><g class="dockers"/><g class="magnets" transform="translate(360, 140)"><g pointer-events="all" display="none" transform="translate(-7, 12)"><circle cx="8" cy="8" r="4" stroke="none" fill="red" fill-opacity="0.3"/></g><g pointer-events="all" display="none" transform="translate(-7, 32)"><circle cx="8" cy="8" r="4" stroke="none" fill="red" fill-opacity="0.3"/></g><g pointer-events="all" display="none" transform="translate(-7, 52)"><circle cx="8" cy="8" r="4" stroke="none" fill="red" fill-opacity="0.3"/></g><g pointer-events="all" display="none" transform="translate(17, 71)"><circle cx="8" cy="8" r="4" stroke="none" fill="red" fill-opacity="0.3"/></g><g pointer-events="all" display="none" transform="translate(42, 71)"><circle cx="8" cy="8" r="4" stroke="none" fill="red" fill-opacity="0.3"/></g><g pointer-events="all" display="none" transform="translate(67, 71)"><circle cx="8" cy="8" r="4" stroke="none" fill="red" fill-opacity="0.3"/></g><g pointer-events="all" display="none" transform="translate(91, 12)"><circle cx="8" cy="8" r="4" stroke="none" fill="red" fill-opacity="0.3"/></g><g pointer-events="all" display="none" transform="translate(91, 32)"><circle cx="8" cy="8" r="4" stroke="none" fill="red" fill-opacity="0.3"/></g><g pointer-events="all" display="none" transform="translate(91, 52)"><circle cx="8" cy="8" r="4" stroke="none" fill="red" fill-opacity="0.3"/></g><g pointer-events="all" display="none" transform="translate(17, -7)"><circle cx="8" cy="8" r="4" stroke="none" fill="red" fill-opacity="0.3"/></g><g pointer-events="all" display="none" transform="translate(42, -7)"><circle cx="8" cy="8" r="4" stroke="none" fill="red" fill-opacity="0.3"/></g><g pointer-events="all" display="none" transform="translate(67, -7)"><circle cx="8" cy="8" r="4" stroke="none" fill="red" fill-opacity="0.3"/></g><g pointer-events="all" display="none" transform="translate(42, 32)"><circle cx="8" cy="8" r="4" stroke="none" fill="red" fill-opacity="0.3"/></g></g></g></g><g id="_581C836D-1318-4A7A-85B5-64D0DF514CB9" bpmn2nodeid="_D88FEA9A-D433-4922-BA17-300FA739E23A"><g class="stencils" transform="translate(570, 166)"><g class="me"><g pointer-events="fill" id="_581C836D-1318-4A7A-85B5-64D0DF514CB9">      <defs id="_581C836D-1318-4A7A-85B5-64D0DF514CB9__581C836D-1318-4A7A-85B5-64D0DF514CB9_5"> 		<radialGradient id="_581C836D-1318-4A7A-85B5-64D0DF514CB9background" cx="10%" cy="10%" r="100%" fx="10%" fy="10%"> 			<stop offset="0%" stop-color="#ffffff" stop-opacity="1" id="_581C836D-1318-4A7A-85B5-64D0DF514CB9__581C836D-1318-4A7A-85B5-64D0DF514CB9_6"/> 			<stop id="_581C836D-1318-4A7A-85B5-64D0DF514CB9fill_el" offset="100%" stop-color="#ff6347" stop-opacity="1"/> 		</radialGradient> 	</defs> 	     <circle id="_581C836D-1318-4A7A-85B5-64D0DF514CB9bg_frame" cx="14" cy="14" r="14" stroke="#000000" fill="url(#_581C836D-1318-4A7A-85B5-64D0DF514CB9background) white" stroke-width="3"/> 	<text font-size="11" id="_581C836D-1318-4A7A-85B5-64D0DF514CB9text_name" x="14" y="30" oryx:align="top center" stroke="black" stroke-width="0pt" letter-spacing="-0.01px" fill="#000000" text-anchor="middle" transform="rotate(0 14 30)" visibility="inherit" oryx:fontSize="11"/>   </g></g><g class="children" style="overflow:hidden"/><g class="edge"/></g><g class="controls"><g class="dockers"/><g class="magnets" transform="translate(570, 166)"><g pointer-events="all" display="none" transform="translate(6, 6)"><circle cx="8" cy="8" r="4" stroke="none" fill="red" fill-opacity="0.3"/></g></g></g></g><g id="_4B765374-2C71-41B2-A729-D291176311DD" bpmn2nodeid="_50F90CF1-32F7-4C07-A7D8-6DC9739FE7ED"><g class="stencils" transform="translate(165, 140)"><g class="me"><g pointer-events="fill" oryx:minimumSize="50 40" id="_4B765374-2C71-41B2-A729-D291176311DD">   	<defs id="_4B765374-2C71-41B2-A729-D291176311DD__4B765374-2C71-41B2-A729-D291176311DD_17"> 		<radialGradient id="_4B765374-2C71-41B2-A729-D291176311DDbackground" cx="10%" cy="10%" r="100%" fx="10%" fy="10%"> 			<stop offset="0%" stop-color="#ffffff" stop-opacity="1" id="_4B765374-2C71-41B2-A729-D291176311DD__4B765374-2C71-41B2-A729-D291176311DD_18"/> 			<stop id="_4B765374-2C71-41B2-A729-D291176311DDfill_el" offset="100%" stop-color="#fafad2" stop-opacity="1"/> 		</radialGradient> 		<radialGradient id="_4B765374-2C71-41B2-A729-D291176311DDborderbackground" cx="10%" cy="10%" r="100%" fx="10%" fy="10%"> 			<stop offset="0%" stop-color="#ffffff" stop-opacity="1" id="_4B765374-2C71-41B2-A729-D291176311DD__4B765374-2C71-41B2-A729-D291176311DD_19"/> 			<stop id="_4B765374-2C71-41B2-A729-D291176311DDfill_border" offset="100%" stop-color="#000000" stop-opacity="1" stroke="#000000"/> 		</radialGradient> 	</defs> 	 	<rect id="_4B765374-2C71-41B2-A729-D291176311DDtext_frame" oryx:anchors="bottom top right left" x="1" y="1" width="94" height="79" rx="10" ry="10" stroke="none" stroke-width="0" fill="none"/> 	<rect id="_4B765374-2C71-41B2-A729-D291176311DDbg_frame" oryx:resize="vertical horizontal" x="0" y="0" width="100" height="80" rx="10" ry="10" stroke="#000000" stroke-width="1" fill="url(#_4B765374-2C71-41B2-A729-D291176311DDbackground) #ffffcc"/> 		<text font-size="12" id="_4B765374-2C71-41B2-A729-D291176311DDtext_name" x="50" y="40" oryx:align="middle center" oryx:fittoelem="text_frame" stroke="black" text-anchor="middle" stroke-width="0pt" letter-spacing="-0.01px" fill="#000000" transform="rotate(0 50 40)" visibility="inherit" oryx:fontSize="12"><tspan x="50" y="40" dy="5">Digitar</tspan></text>     <g id="_4B765374-2C71-41B2-A729-D291176311DDmanualTask" transform="scale(0.7,0.7) translate(8,8)" display="none">     	<path oryx:anchors="top left" id="_4B765374-2C71-41B2-A729-D291176311DDframe" style="opacity:1;fill:none;fill-opacity:1;stroke-width:1" d="M0.5,3.751l4.083-3.25c0,0,11.166,0.083,12.083,0.083s-2.417,2.917-1.5,2.917     s11.667,0,12.584,0c1.166,1.708-0.168,3.167-0.834,3.667s0.875,1.917-1,4.417c-0.75,0.25,0.75,1.875-1.333,3.333     c-1.167,0.583,0.583,1.542-1.25,2.833c-1.167,0-20.833,0.083-20.833,0.083l-2-1.333V3.751z" stroke="#000000"/> 		<path id="_4B765374-2C71-41B2-A729-D291176311DDframe2" oryx:anchors="top left" style="opacity:1;fill:none;stroke-width:2" d="M 13.5 7 L 27 7" stroke="#000000"/> 		<path id="_4B765374-2C71-41B2-A729-D291176311DDframe3" oryx:anchors="top left" style="opacity:1;fill:none;stroke-width:2" d="M 13.5 11 L 26 11" stroke="#000000"/> 		<path id="_4B765374-2C71-41B2-A729-D291176311DDframe4" oryx:anchors="top left" style="opacity:1;fill:none;stroke-width:1.5" d="M 14 14.5 L 25 14.5" stroke="#000000"/> 		<path id="_4B765374-2C71-41B2-A729-D291176311DDframe5" oryx:anchors="top left" style="opacity:1;fill:none;stroke-width:1.5" d="M 8.2 3.1 L 15 3.1" stroke="#000000"/> 	</g> 	 	<g id="_4B765374-2C71-41B2-A729-D291176311DDbusinessRuleTask" transform="scale(0.7,0.7) translate(8,8)" display="none"> 		<rect id="_4B765374-2C71-41B2-A729-D291176311DDframe6" oryx:anchors="top left" x="0" y="0" width="22" height="4" style="opacity:1;fill:#B3B1B3;fill-opacity:1;" stroke="#000000"/> 		<rect id="_4B765374-2C71-41B2-A729-D291176311DDframe7" oryx:anchors="top left" x="0" y="4" style="opacity:1;fill:none;" width="22" height="12" stroke="#000000"/> 		<path id="_4B765374-2C71-41B2-A729-D291176311DDframe8" oryx:anchors="top left" style="opacity:1;fill:none;" d="M 0 10 L 22 10" stroke="#000000"/> 		<path id="_4B765374-2C71-41B2-A729-D291176311DDframe9" oryx:anchors="top left" style="opacity:1; fill:none;" d="M 7 4 L 7 16" stroke="#000000"/> 	</g> 	 	<g id="_4B765374-2C71-41B2-A729-D291176311DDscriptTask" transform="scale(0.7,0.7) translate(8,8)" display="none"> 		<path oryx:anchors="top left" id="_4B765374-2C71-41B2-A729-D291176311DDframe10" style="opacity:1;fill:none;" stroke="#000000" d="M6.402,0.5h14.5c0,0-5.833,2.833-5.833,5.583s4.417,6,4.417,9.167    s-4.167,5.083-4.167,5.083H0.235c0,0,5-2.667,5-5s-4.583-6.75-4.583-9.25S6.402,0.5,6.402,0.5z"/> 		<path oryx:anchors="top left" id="_4B765374-2C71-41B2-A729-D291176311DDframe11" style="opacity:1;fill:none;stroke-width:1.5" d="M 3.5 4.5 L 13.5 4.5" stroke="#000000"/> 		<path oryx:anchors="top left" id="_4B765374-2C71-41B2-A729-D291176311DDframe12" style="opacity:1;fill:none;stroke-width:1.5" d="M 3.8 8.5 L 13.8 8.5" stroke="#000000"/> 		<path oryx:anchors="top left" id="_4B765374-2C71-41B2-A729-D291176311DDframe13" style="opacity:1;fill:none;stroke-width:1.5" d="M 6.3 12.5 L 16.3 12.5" stroke="#000000"/> 		<path oryx:anchors="top left" id="_4B765374-2C71-41B2-A729-D291176311DDframe14" style="opacity:1;fill:none;stroke-width:1.5" d="M 6.5 16.5 L 16.5 16.5" stroke="#000000"/> 	</g> 	 	<g id="_4B765374-2C71-41B2-A729-D291176311DDuserTask" transform="scale(0.7,0.7) translate(8,8)" display="inherit"> 		<path id="_4B765374-2C71-41B2-A729-D291176311DDframe15" oryx:anchors="top left" style="opacity:1;fill:#F4F6F7" stroke="#000000" d="M0.585,24.167h24.083v-7.833c0,0-2.333-3.917-7.083-5.167h-9.25    c-4.417,1.333-7.833,5.75-7.833,5.75L0.585,24.167z"/> 		<path id="_4B765374-2C71-41B2-A729-D291176311DDframe16" oryx:anchors="top left" style="opacity:1;fill:none" d="M 6 20 L 6 24" stroke="#000000"/> 		<path id="_4B765374-2C71-41B2-A729-D291176311DDframe17" oryx:anchors="top left" style="opacity:1;fill:none" d="M 20 20 L 20 24" stroke="#000000"/> 		<circle id="_4B765374-2C71-41B2-A729-D291176311DDframe18" oryx:anchors="top left" fill="black" cx="13.002" cy="5.916" r="5.417" stroke="#000000"/> 		<path id="_4B765374-2C71-41B2-A729-D291176311DDframe19" oryx:anchors="top left" style="opacity:1;fill:#F0EFF0;" stroke="#000000" d="M8.043,7.083c0,0,2.814-2.426,5.376-1.807s4.624-0.693,4.624-0.693    c0.25,1.688,0.042,3.75-1.458,5.584c0,0,1.083,0.75,1.083,1.5s0.125,1.875-1,3s-5.5,1.25-6.75,0S8.668,12.834,8.668,12    s0.583-1.25,1.25-1.917C8.835,9.5,7.419,7.708,8.043,7.083z"/> 	</g> 	 	<g id="_4B765374-2C71-41B2-A729-D291176311DDserviceTask" transform="scale(0.7,0.7) translate(8,8)" display="none"> 		<polygon oryx:anchors="top left" id="_4B765374-2C71-41B2-A729-D291176311DDframe20" style="opacity:1;fill:#ffffff" stroke="#000000" points="15.392,5.064 17.954,2.502 20.347,4.895 17.786,7.455     18.729,9.732 22.353,9.732 22.353,13.115 18.731,13.115 17.788,15.392 20.351,17.955 17.958,20.347 15.397,17.786 13.12,18.729     13.12,22.353 9.737,22.353 9.737,18.731 7.46,17.788 4.897,20.35 2.506,17.958 5.066,15.397 4.124,13.12 0.5,13.12 0.5,9.737     4.121,9.737 5.065,7.461 2.503,4.898 4.895,2.506 7.455,5.066 9.732,4.125 9.732,0.5 13.116,0.5 13.116,4.121 "/> 		<circle oryx:anchors="top left" id="_4B765374-2C71-41B2-A729-D291176311DDframe21" style="opacity:1;fill:none" stroke="#000000" cx="11.427" cy="11.426" r="3.714"/> 		<polygon oryx:anchors="top left" id="_4B765374-2C71-41B2-A729-D291176311DDframe22" style="opacity:1;fill:#ffffff" stroke="#000000" points="21.392,11.064 23.954,8.502 26.347,10.895 23.786,13.455     24.729,15.732 28.353,15.732 28.353,19.115 24.731,19.115 23.788,21.392 26.351,23.955 23.958,26.347 21.397,23.786 19.12,24.729     19.12,28.353 15.737,28.353 15.737,24.731 13.46,23.788 10.897,26.35 8.506,23.958 11.066,21.397 10.124,19.12 6.5,19.12     6.5,15.737 10.121,15.737 11.065,13.461 8.503,10.898 10.895,8.506 13.455,11.066 15.732,10.125 15.732,6.5 19.116,6.5     19.116,10.121 "/> 		<circle oryx:anchors="top left" id="_4B765374-2C71-41B2-A729-D291176311DDframe23" style="opacity:1;fill:none;" stroke="#000000" cx="17.427" cy="17.426" r="3.714"/> 	</g> 	 	<g id="_4B765374-2C71-41B2-A729-D291176311DDsendTask" display="none"> 		<path id="_4B765374-2C71-41B2-A729-D291176311DDstframe24" oryx:anchors="left top" stroke="#FFFFFF" fill="black" stroke-width="1" d="M8,11 L8,21 L24,21 L24,11 L16,17z"/> 		<path id="_4B765374-2C71-41B2-A729-D291176311DDstframe25" oryx:anchors="left top" stroke="#FFFFFF" fill="black" stroke-width="1" d="M7,10 L16,17 L25 10z"/> 	</g> 	 	<g id="_4B765374-2C71-41B2-A729-D291176311DDreceiveTask" display="none"> 		<path id="_4B765374-2C71-41B2-A729-D291176311DDframe26" oryx:anchors="left top" stroke="#000000" fill="none" stroke-width="1" d="M8,11 L8,21 L24,21 L24,11z M8,11 L16,17 L24,11"/> 	</g> 	 	<g id="_4B765374-2C71-41B2-A729-D291176311DDnone" display="inherit"/>  	<g id="_4B765374-2C71-41B2-A729-D291176311DDsequential" display="none">         <path oryx:anchors="bottom" fill="none" stroke="#000000" stroke-width="2" d="M46,76h10M46,72h10 M46,68h10" id="_4B765374-2C71-41B2-A729-D291176311DD__4B765374-2C71-41B2-A729-D291176311DD_20"/>     </g>   </g></g><g class="children" style="overflow:hidden"/><g class="edge"/></g><g class="controls"><g class="dockers"/><g class="magnets" transform="translate(165, 140)"><g pointer-events="all" display="none" transform="translate(-7, 12)"><circle cx="8" cy="8" r="4" stroke="none" fill="red" fill-opacity="0.3"/></g><g pointer-events="all" display="none" transform="translate(-7, 32)"><circle cx="8" cy="8" r="4" stroke="none" fill="red" fill-opacity="0.3"/></g><g pointer-events="all" display="none" transform="translate(-7, 52)"><circle cx="8" cy="8" r="4" stroke="none" fill="red" fill-opacity="0.3"/></g><g pointer-events="all" display="none" transform="translate(17, 71)"><circle cx="8" cy="8" r="4" stroke="none" fill="red" fill-opacity="0.3"/></g><g pointer-events="all" display="none" transform="translate(42, 71)"><circle cx="8" cy="8" r="4" stroke="none" fill="red" fill-opacity="0.3"/></g><g pointer-events="all" display="none" transform="translate(67, 71)"><circle cx="8" cy="8" r="4" stroke="none" fill="red" fill-opacity="0.3"/></g><g pointer-events="all" display="none" transform="translate(91, 12)"><circle cx="8" cy="8" r="4" stroke="none" fill="red" fill-opacity="0.3"/></g><g pointer-events="all" display="none" transform="translate(91, 32)"><circle cx="8" cy="8" r="4" stroke="none" fill="red" fill-opacity="0.3"/></g><g pointer-events="all" display="none" transform="translate(91, 52)"><circle cx="8" cy="8" r="4" stroke="none" fill="red" fill-opacity="0.3"/></g><g pointer-events="all" display="none" transform="translate(17, -7)"><circle cx="8" cy="8" r="4" stroke="none" fill="red" fill-opacity="0.3"/></g><g pointer-events="all" display="none" transform="translate(42, -7)"><circle cx="8" cy="8" r="4" stroke="none" fill="red" fill-opacity="0.3"/></g><g pointer-events="all" display="none" transform="translate(67, -7)"><circle cx="8" cy="8" r="4" stroke="none" fill="red" fill-opacity="0.3"/></g><g pointer-events="all" display="none" transform="translate(42, 32)"><circle cx="8" cy="8" r="4" stroke="none" fill="red" fill-opacity="0.3"/></g></g></g></g></g><g class="edge"><g id="_7258FDEA-98B6-41FF-8FC3-65629173C990" bpmn2nodeid="_490C222E-6D42-4E74-B840-B83EFEDB1DD7"><g class="stencils"><g class="me"><g pointer-events="painted" bpmn2nodeid="_082CD2D6-C9EA-407B-94E7-4A63D6E8C88E"><path id="_7258FDEA-98B6-41FF-8FC3-65629173C990_1" d="M460.6171875 180L569.40625 180 " stroke="#000000" fill="none" stroke-width="2" stroke-linecap="round" stroke-linejoin="round" marker-start="url(#_7258FDEA-98B6-41FF-8FC3-65629173C990start)" marker-end="url(#_7258FDEA-98B6-41FF-8FC3-65629173C990end)"/></g><text id="_7258FDEA-98B6-41FF-8FC3-65629173C990text_name" font-size="12" x="474.6171875" y="166" oryx:edgePosition="startTop" stroke-width="0pt" letter-spacing="-0.01px" fill="#000000" text-anchor="start" transform="rotate(360 460.6171875 180)" visibility="inherit" oryx:fontSize="12"/></g><g class="children" style="overflow:hidden"/><g class="edge"/></g><g class="controls"><g class="dockers"/><g class="magnets"/></g></g><g id="_CE38B5DA-90E3-4BFF-BA02-8E745020A76C" bpmn2nodeid="_20EA960A-80DE-468F-A27D-9D29DF7DA35B"><g class="stencils"><g class="me"><g pointer-events="painted" bpmn2nodeid="_FAE03E7C-14AA-4F8D-B550-EFB22CF1D679"><path id="_CE38B5DA-90E3-4BFF-BA02-8E745020A76C_1" d="M105.6484375 180L164.1953125 180 " stroke="#000000" fill="none" stroke-width="2" stroke-linecap="round" stroke-linejoin="round" marker-start="url(#_CE38B5DA-90E3-4BFF-BA02-8E745020A76Cstart)" marker-end="url(#_CE38B5DA-90E3-4BFF-BA02-8E745020A76Cend)"/></g><text id="_CE38B5DA-90E3-4BFF-BA02-8E745020A76Ctext_name" font-size="12" x="119.6484375" y="166" oryx:edgePosition="startTop" stroke-width="0pt" letter-spacing="-0.01px" fill="#000000" text-anchor="start" transform="rotate(360 105.6484375 180)" visibility="inherit" oryx:fontSize="12"/></g><g class="children" style="overflow:hidden"/><g class="edge"/></g><g class="controls"><g class="dockers"/><g class="magnets"/></g></g><g id="_378F803D-270D-46E6-A6B6-857E3E0FB67C" bpmn2nodeid="_5848D70F-1472-47AF-9AF2-6BDCDFE80544"><g class="stencils"><g class="me"><g pointer-events="painted" bpmn2nodeid="_E78BEF51-8EEB-4475-9FCE-8BC5939E40F2"><path id="_378F803D-270D-46E6-A6B6-857E3E0FB67C_1" d="M265.51171875 180L359.48828125 180 " stroke="#000000" fill="none" stroke-width="2" stroke-linecap="round" stroke-linejoin="round" marker-start="url(#_378F803D-270D-46E6-A6B6-857E3E0FB67Cstart)" marker-end="url(#_378F803D-270D-46E6-A6B6-857E3E0FB67Cend)"/></g><text id="_378F803D-270D-46E6-A6B6-857E3E0FB67Ctext_name" font-size="12" x="279.51171875" y="166" oryx:edgePosition="startTop" stroke-width="0pt" letter-spacing="-0.01px" fill="#000000" text-anchor="start" transform="rotate(360 265.51171875 180)" visibility="inherit" oryx:fontSize="12"/></g><g class="children" style="overflow:hidden"/><g class="edge"/></g><g class="controls"><g class="dockers"/><g class="magnets"/></g></g></g><text id="_79AF79BF-4621-4F06-9B72-A11A641F56F0" style="stroke-width:1;fill:rgb(177,194,214);font-family:arial;font-weight:bold" font-size="12" onclick="ORYX.Plugins.CanvasTitle.openTextualAnalysis()" onmouseover="ORYX.Plugins.CanvasTitle.addToolTip('_79AF79BF-4621-4F06-9B72-A11A641F56F0')" transform="translate(10, 20)">POC1 v.1.0 (Process.POC1)</text></g></g></svg>